# 

mtllib Bills with binding strip ver.2.mtl

v -1.1337 0.1183 -0.5028
v 1.1337 0.1183 -0.5028
v 1.1337 -0.0352 -0.5028
v -1.1337 -0.0352 -0.5028
v 1.1337 0.1183 -0.5028
v 1.1337 0.1183 0.5028
v 1.1337 -0.0352 0.5028
v 1.1337 -0.0352 -0.5028
v 1.1337 0.1183 0.5028
v -1.1337 0.1183 0.5028
v -1.1337 -0.0352 0.5028
v 1.1337 -0.0352 0.5028
v -1.1337 0.1183 0.5028
v -1.1337 0.1183 -0.5028
v -1.1337 -0.0352 -0.5028
v -1.1337 -0.0352 0.5028
v 1.1337 0.1183 -0.5028
v -1.1337 0.1183 -0.5028
v -1.1337 -0.0352 -0.5028
v 1.1337 -0.0352 -0.5028
v -0.1288 0.1298 -0.5154999
v 0.1288 0.1298 -0.5154999
v 0.1288 -0.0466 -0.5154999
v -0.1288 -0.0466 -0.5154999
v 0.1288 0.1298 -0.5154999
v 0.1288 0.1298 0.5154999
v 0.1288 -0.0466 0.5154999
v 0.1288 -0.0466 -0.5154999
v 0.1288 0.1298 0.5154999
v -0.1288 0.1298 0.5154999
v -0.1288 -0.0466 0.5154999
v 0.1288 -0.0466 0.5154999
v -0.1288 0.1298 0.5154999
v -0.1288 0.1298 -0.5154999
v -0.1288 -0.0466 -0.5154999
v -0.1288 -0.0466 0.5154999
v 0.1288 0.1298 -0.5154999
v -0.1288 0.1298 -0.5154999
v -0.1288 -0.0466 -0.5154999
v 0.1288 -0.0466 -0.5154999
v 0.6896 0.174 0.4484
v 1.0308 0.3237 0.3144
v 1.0685 0.174 0.003
v 1.128 0.1144 -0.2914
v 1.128 0.1144 -0.4978
v -1.128 0.1144 -0.4978
v 0.5332 0.1144 0.3832999
v 0.4322 0.1144 0.4978
v -1.128 0.1144 0.4978
v 0.8785999 0.1144 -0.0085
v -1.1337 0.1183 0.5028
v 1.1337 0.1183 0.5028
v 1.1337 -0.0352 0.5028
v -1.1337 -0.0352 0.5028
v -0.1288 0.1298 0.5154999
v 0.1288 0.1298 0.5154999
v 0.1288 -0.0466 0.5154999
v -0.1288 -0.0466 0.5154999
v 1.0685 0.174 0.003
v 1.0308 0.3237 0.3144
v 0.6896 0.174 0.4484
v 0.4322 0.1144 0.4978
v -1.128 0.1144 0.4978
v -1.128 0.1144 -0.4978
v 1.128 0.1144 -0.2914
v 1.128 0.1144 -0.4978

vt 0 0
vt 1 0
vt 1 1
vt 0 1
vt 0 0
vt 1 0
vt 1 1
vt 0 1
vt 0 0
vt 1 0
vt 1 1
vt 0 1
vt 0 0
vt 1 0
vt 1 1
vt 0 1
vt 1 1
vt 0 1
vt 0 0
vt 1 0
vt 0 0
vt 1 0
vt 1 1
vt 0 1
vt 0 0
vt 1 0
vt 1 1
vt 0 1
vt 0 0
vt 1 0
vt 1 1
vt 0 1
vt 0 0
vt 1 0
vt 1 1
vt 0 1
vt 1 1
vt 0 1
vt 0 0
vt 1 0
vt 0.83209 0
vt 1 0
vt 1 0.4474
vt 1 0.79267
vt 1 1
vt 0 1
vt 0.73636 0.11505
vt 0.69158 0
vt 0 0
vt 0.88943 0.5085
vt 0 0
vt 1 0
vt 1 1
vt 0 1
vt 0 0
vt 1 0
vt 1 1
vt 0 1
vt 1 0.4474
vt 1 0
vt 0.83209 0
vt 0.69158 0
vt 0 0
vt 0 1
vt 1 0.79267
vt 1 1

vn 0 0 -0.9999999
vn 0 0 -0.9999999
vn 0 0 -0.9999999
vn 0 0 -0.9999999
vn 0.9999999 0 0
vn 0.9999999 0 0
vn 0.9999999 0 0
vn 0.9999999 0 0
vn 0 0 0.9999999
vn 0 0 0.9999999
vn 0 0 0.9999999
vn 0 0 0.9999999
vn -0.9999999 0 0
vn -0.9999999 0 0
vn -0.9999999 0 0
vn -0.9999999 0 0
vn 0 0.9999999 0
vn 0 0.9999999 0
vn 0 -0.9999999 0
vn 0 -0.9999999 0
vn 0 0 -0.9999999
vn 0 0 -0.9999999
vn 0 0 -0.9999999
vn 0 0 -0.9999999
vn 0.9999999 0 0
vn 0.9999999 0 0
vn 0.9999999 0 0
vn 0.9999999 0 0
vn 0 0 0.9999999
vn 0 0 0.9999999
vn 0 0 0.9999999
vn 0 0 0.9999999
vn -0.9999999 0 0
vn -0.9999999 0 0
vn -0.9999999 0 0
vn -0.9999999 0 0
vn 0 0.9999999 0
vn 0 0.9999999 0
vn 0 -0.9999999 0
vn 0 -0.9999999 0
vn -0.3479939 0.8881438 -0.3001679
vn -0.4983411 0.7563481 -0.4237851
vn -0.3901739 0.8580288 -0.3339919
vn -0.137422 0.9833314 -0.119057
vn 0 0.9999999 0
vn 0 0.9999999 0
vn -0.1350039 0.9837946 -0.1179909
vn -0.1325869 0.9842505 -0.1169249
vn 0 0.9999999 0
vn 0.1389221 -0.9828374 0.121373
vn 0 0.9999999 0
vn 0 0.9999999 0
vn 0 -0.9999999 0
vn 0 -0.9999999 0
vn 0 0.9999999 0
vn 0 0.9999999 0
vn 0 -0.9999999 0
vn 0 -0.9999999 0
vn 0.3527382 -0.8848734 0.3042611
vn 0.4983411 -0.7563481 0.4237851
vn 0.389778 -0.8583869 0.333534
vn 0.136959 -0.9834582 0.118542
vn 0 -0.9999999 0
vn 0 -0.9999999 0
vn 0.1408849 -0.9822036 0.1242069
vn 0 -0.9999999 0

g obj1
usemtl m0
f 1/1/1 2/2/2 3/3/3
f 1/1/1 3/3/3 4/4/4
f 5/5/5 6/6/6 7/7/7
f 5/5/5 7/7/7 8/8/8
f 9/9/9 10/10/10 11/11/11
f 9/9/9 11/11/11 12/12/12
f 13/13/13 14/14/14 15/15/15
f 13/13/13 15/15/15 16/16/16
usemtl m1
f 51/51/51 52/52/52 17/17/17
f 51/51/51 17/17/17 18/18/18
f 19/19/19 20/20/20 53/53/53
f 19/19/19 53/53/53 54/54/54
f 41/41/41 42/42/42 43/43/43
f 59/59/59 60/60/60 61/61/61
f 44/44/44 45/45/45 46/46/46
f 44/44/44 46/46/46 47/47/47
f 44/44/44 47/47/47 41/41/41
f 44/44/44 41/41/41 43/43/43
f 48/48/48 41/41/41 47/47/47
f 48/48/48 47/47/47 46/46/46
f 48/48/48 46/46/46 49/49/49
f 62/62/62 63/63/63 64/64/64
f 62/62/62 64/64/64 50/50/50
f 62/62/62 50/50/50 59/59/59
f 62/62/62 59/59/59 61/61/61
f 65/65/65 59/59/59 50/50/50
f 65/65/65 50/50/50 64/64/64
f 65/65/65 64/64/64 66/66/66
usemtl m2
f 21/21/21 22/22/22 23/23/23
f 21/21/21 23/23/23 24/24/24
f 25/25/25 26/26/26 27/27/27
f 25/25/25 27/27/27 28/28/28
f 29/29/29 30/30/30 31/31/31
f 29/29/29 31/31/31 32/32/32
f 33/33/33 34/34/34 35/35/35
f 33/33/33 35/35/35 36/36/36
f 55/55/55 56/56/56 37/37/37
f 55/55/55 37/37/37 38/38/38
f 39/39/39 40/40/40 57/57/57
f 39/39/39 57/57/57 58/58/58
